# xmcd
#
# Track frame offsets:
#	150
#	22133
#	33079
#	43732
#	63155
#	75238
#	91234
#	113284
#	128066
#	141615
#	153640
#	166595
#	188445
#	202086
#	210841
#	223944
#	236600
#
# Disc length: 3337 seconds
#
# Revision: 1
# Processed by: cddbd v1.5.2PL0 Copyright (c) Steve Scherf et al.
# Submitted via: audiograbber 1.83.01
#
DISCID=db0d0711
DTITLE=Simply Blaxploitation - Blaxploitation #4
DYEAR=2012
DGENRE=Funk
TTITLE0=The Staple Singers - Let's Do It Again
TTITLE1=Bobby Womack - Hang On In There
TTITLE2=Sly and The Family Stone - The Same Thing (makes you happy, mlakes you cr
TTITLE2=y)
TTITLE3=Funkadelic - P.E. Squad-Doo Chasers (going all the way off - Instrument
TTITLE3=al)
TTITLE4=Robert Parker - Get Right Down
TTITLE5=The Last Poets - New York, New York
TTITLE6=Maceo and All The King's Men - Better Half
TTITLE7=Albert King - We All Wanna Boogie
TTITLE8=The Impressions - Having A Ball
TTITLE9=The Soul Suspects - Funky Drops
TTITLE10=Mavis Staples - Good Lovin' Daddy
TTITLE11=Charlie Rouse - In A Funky Way
TTITLE12=Leroy Hutson - All Because Of You
TTITLE13=David Batiste and The Gladiators - Funky Soul - Part 1 (mono)
TTITLE14=The Triplett Twins - Get It
TTITLE15=Jody Gayles - You Gotta Push
TTITLE16=Pee Wee Ellis - Do That Thing
EXTD=
EXTT0=
EXTT1=
EXTT2=
EXTT3=
EXTT4=
EXTT5=
EXTT6=
EXTT7=
EXTT8=
EXTT9=
EXTT10=
EXTT11=
EXTT12=
EXTT13=
EXTT14=
EXTT15=
EXTT16=
PLAYORDER=
